<svg xmlns="http://www.w3.org/2000/svg" width="20" height="38" fill="none" viewBox="0 0 20 38">
    <path fill="#FF8059" d="M.929 16.511H19.07v13.132H.929z"/>
    <path fill="#FF9E75" d="M10 17.151c4.021 0 7.484 2.43 9.07 5.926a10.34 10.34 0 0 0 .922-4.286c0-5.643-4.475-10.216-9.996-10.216C4.475 8.575 0 13.148 0 18.791c0 1.533.333 2.982.92 4.286 1.596-3.5 5.06-5.926 9.08-5.926z"/>
    <path fill="#FFC1A9" d="M10 29.006c-4.021 0-7.484-2.43-9.07-5.925a10.34 10.34 0 0 0-.922 4.286c0 5.642 4.475 10.216 9.996 10.216 5.521 0 9.996-4.574 9.996-10.216 0-1.533-.333-2.983-.92-4.286-1.596 3.495-5.06 5.925-9.08 5.925z"/>
    <path fill="#F50" d="M19.73 12.553C20.994 7.06 17.66 1.563 12.286.273 6.91-1.017 1.53 2.39.269 7.883c-1.262 5.492 2.071 10.99 7.446 12.28 5.374 1.29 10.754-2.118 12.016-7.61z"/>
</svg>
