<?xml version="1.0" standalone="no"?>
<!DOCTYPE svg PUBLIC "-//W3C//DTD SVG 1.1//EN" "http://www.w3.org/Graphics/SVG/1.1/DTD/svg11.dtd" >
<svg xmlns="http://www.w3.org/2000/svg">
<metadata>Generated by IcoMoon</metadata>
<defs>
<font id="icomoon" horiz-adv-x="1024">
<font-face units-per-em="1024" ascent="960" descent="-64" />
<missing-glyph horiz-adv-x="1024" />
<glyph unicode="&#x20;" horiz-adv-x="512" d="" />
<glyph unicode="&#xe900;" d="M0 960h1024v-1024h-1024z" />
<glyph unicode="&#xe901;" d="M660.821 444.501c-30.464-99.413-78.763-143.744-148.821-143.744v-85.333c111.701 0 189.867 71.68 230.4 204.075 35.755 116.565 46.763 248.917 33.408 396.928-3.050 32.78-30.422 58.24-63.74 58.24-0.001 0-0.003 0-0.004 0h-200.064v-85.333h180.437c9.813-129.579-0.853-244.48-31.573-344.832z" />
<glyph unicode="&#xe902;" d="M896 601.003c-19.466-34.951-45.396-64.029-76.418-86.511l-0.766-0.529c-33.536-24.277-72.832-37.376-118.997-39.296l3.584-85.291c62.507 2.645 118.016 21.163 165.461 55.467 43.701 31.701 79.096 72.143 104.13 118.958l0.915 1.874c4.676 8.669 7.424 18.973 7.424 29.919 0 0.012 0 0.023 0 0.035v-0.002 99.499c0 35.346-28.654 64-64 64v0h-178.731v-85.333h157.397v-72.789z" />
<glyph unicode="&#xe903;" d="M363.179 444.501c30.464-99.413 78.763-143.744 148.821-143.744v-85.333c-111.701 0-189.867 71.68-230.4 204.075-35.755 116.565-46.763 248.917-33.408 396.928 3.050 32.78 30.422 58.24 63.74 58.24 0.001 0 0.003 0 0.004 0h200.064v-85.333h-180.437c-9.813-129.579 0.853-244.48 31.573-344.832z" />
<glyph unicode="&#xe904;" d="M128 601.003c19.2-34.688 44.8-63.573 77.184-87.040 33.536-24.277 72.832-37.376 118.997-39.296l-3.584-85.291c-62.507 2.645-118.016 21.163-165.461 55.467-43.701 31.701-79.096 72.143-104.13 118.958l-0.915 1.874c-4.676 8.669-7.424 18.973-7.424 29.919 0 0.012 0 0.023 0 0.035v-0.002 99.499c0 35.346 28.654 64 64 64v0h178.731v-85.333h-157.397v-72.789z" />
<glyph unicode="&#xe905;" d="M469.333 261.333v-229.931h85.333v229.973z" />
<glyph unicode="&#xe906;" d="M338.944 106.667h346.112c35.346 0 64-28.654 64-64v0-21.333h-474.112v21.333c0 35.346 28.654 64 64 64v0z" />
<glyph unicode="&#xe907;" d="M446.080 449.493c-8.96-4.907-19.371 2.987-17.664 13.44l12.587 76.8-53.333 54.357c-7.211 7.381-3.2 20.224 6.784 21.76l73.685 11.179 32.939 69.888c1.904 4.222 6.077 7.107 10.923 7.107s9.018-2.886 10.892-7.032l0.030-0.075 32.939-69.888 73.685-11.221c9.984-1.493 13.995-14.336 6.784-21.717l-53.333-54.357 12.587-76.8c1.707-10.411-8.747-18.347-17.664-13.44l-65.92 36.267-65.92-36.267z" />
<glyph unicode="&#xe908;" d="M0 960h1024v-1024h-1024z" />
<glyph unicode="&#xe909;" d="M512-21.333c259.2 0 469.333 210.133 469.333 469.333s-210.133 469.333-469.333 469.333-469.333-210.133-469.333-469.333 210.133-469.333 469.333-469.333zM512 64c-212.077 0-384 171.923-384 384s171.923 384 384 384v0c212.077 0 384-171.923 384-384s-171.923-384-384-384v0z" />
<glyph unicode="&#xe90a;" d="M554.667 234.667v426.667c0 23.564-19.103 42.667-42.667 42.667s-42.667-19.103-42.667-42.667v0-426.667c0-23.564 19.103-42.667 42.667-42.667s42.667 19.103 42.667 42.667v0z" />
<glyph unicode="&#xe90b;" d="M298.667 405.333h426.667c23.564 0 42.667 19.103 42.667 42.667s-19.103 42.667-42.667 42.667v0h-426.667c-23.564 0-42.667-19.103-42.667-42.667s19.103-42.667 42.667-42.667v0z" />
<glyph unicode="&#xe90c;" d="M0 960h1024v-1024h-1024z" />
<glyph unicode="&#xe90d;" d="M554.667 106.667v682.667c0 23.564-19.103 42.667-42.667 42.667s-42.667-19.103-42.667-42.667v0-682.667c0-23.564 19.103-42.667 42.667-42.667s42.667 19.103 42.667 42.667v0z" />
<glyph unicode="&#xe90e;" d="M170.667 405.333h682.667c23.564 0 42.667 19.103 42.667 42.667s-19.103 42.667-42.667 42.667v0h-682.667c-23.564 0-42.667-19.103-42.667-42.667s19.103-42.667 42.667-42.667v0z" />
<glyph unicode="&#xe90f;" d="M0 960h1024v-1024h-1024z" />
<glyph unicode="&#xe910;" d="M512 21.333c212.077 0 384 171.923 384 384s-171.923 384-384 384v0c-212.077 0-384-171.923-384-384s171.923-384 384-384v0zM512 106.667c-164.949 0-298.667 133.718-298.667 298.667s133.718 298.667 298.667 298.667v0c164.949 0 298.667-133.718 298.667-298.667s-133.718-298.667-298.667-298.667v0z" />
<glyph unicode="&#xe911;" d="M353.365 858.923c-27.586 35.073-70.024 57.39-117.675 57.39-82.477 0-149.337-66.86-149.337-149.337 0-34.826 11.921-66.868 31.905-92.267l-0.243 0.32zM672.597 858.923c27.586 35.073 70.024 57.39 117.675 57.39 82.477 0 149.337-66.86 149.337-149.337 0-34.826-11.921-66.868-31.905-92.267l0.243 0.32z" />
<glyph unicode="&#xe912;" d="M737.835 119.168l85.333-85.333c7.665-7.41 18.12-11.977 29.641-11.977 23.564 0 42.667 19.103 42.667 42.667 0 11.521-4.567 21.976-11.989 29.653l-85.321 85.321c-7.665 7.41-18.12 11.977-29.641 11.977-23.564 0-42.667-19.103-42.667-42.667 0-11.521 4.567-21.976 11.989-29.653l-0.012 0.012zM286.165 119.168l-85.333-85.333c-7.769-8.036-18.647-13.026-30.69-13.026-23.564 0-42.667 19.103-42.667 42.667 0 12.043 4.989 22.92 13.014 30.678l85.345 85.345c7.769 8.036 18.647 13.026 30.69 13.026 23.564 0 42.667-19.103 42.667-42.667 0-12.043-4.989-22.92-13.014-30.678l-0.012-0.012zM554.667 385.493v190.507c0 23.564-19.103 42.667-42.667 42.667s-42.667-19.103-42.667-42.667v0-236.16l146.987-98.005c6.654-4.494 14.854-7.173 23.68-7.173 23.567 0 42.672 19.105 42.672 42.672 0 14.741-7.475 27.736-18.84 35.402l-0.152 0.096-109.013 72.661z" />
<glyph unicode="&#xe913;" d="M1024 960h-1024v-1024h1024z" />
<glyph unicode="&#xe914;" d="M497.792 277.333l-227.584 341.333h455.125z" />
<glyph unicode="&#xe915;" d="M1024 960h-1024v-1024h1024z" />
<glyph unicode="&#xe916;" d="M327.125 448l341.333-227.541v455.083z" />
<glyph unicode="&#xe917;" d="M1024 960h-1024v-1024h1024z" />
<glyph unicode="&#xe918;" d="M668.459 448l-341.333-227.541v455.083z" />
<glyph unicode="&#xe919;" d="M1024 960h-1024v-1024h1024z" />
<glyph unicode="&#xe91a;" d="M497.792 618.667l227.541-341.333h-455.125z" />
<glyph unicode="&#xe91b;" d="M1019.453 923.587v-983.040h-983.040v983.040z" />
<glyph unicode="&#xe91c;" d="M493.24 736.358v-601.907c0-22.622 18.338-40.96 40.96-40.96s40.96 18.338 40.96 40.96v0 601.907c0 22.622-18.338 40.96-40.96 40.96s-40.96-18.338-40.96-40.96v0z" />
<glyph unicode="&#xe91d;" d="M534.2 695.398l261.407-278.364c7.492-7.959 18.097-12.916 29.86-12.916 22.629 0 40.974 18.345 40.974 40.974 0 10.866-4.23 20.745-11.133 28.079l0.020-0.021-321.126 341.893-321.126-341.934c-7.347-7.401-11.887-17.597-11.887-28.853 0-22.622 18.338-40.96 40.96-40.96 12.153 0 23.070 5.293 30.571 13.699l0.035 0.040 261.448 278.323z" />
<glyph unicode="&#xe91e;" d="M0 960h1024v-1024h-1024z" />
<glyph unicode="&#xe91f;" d="M682.667 149.333c0-94.257-76.41-170.667-170.667-170.667s-170.667 76.41-170.667 170.667v0h85.333c0-47.128 38.205-85.333 85.333-85.333s85.333 38.205 85.333 85.333v0h85.333z" />
<glyph unicode="&#xe920;" d="M811.179 192h-299.179v-85.333h299.179c97.451 0 153.515 31.573 120.192 96.853-5.675 11.093-13.739 20.565-24.192 30.293-4.848 4.412-10.181 9.043-15.62 13.55l-0.764 0.615c-34.304 29.653-54.315 70.272-65.664 116.523-5.504 22.443-6.699 50.773-5.504 102.101l0.341 12.928c1.237 48.725 1.195 69.12-1.152 93.312l-0.768 8.32c-2.688 27.989-4.437 41.984-7.936 59.093-11.307 54.784-36.779 100.864-87.083 149.973-57.472 56.064-128.597 84.437-211.029 84.437v-85.333c60.373 0 110.080-19.84 151.424-60.16 38.229-37.333 55.296-68.181 63.104-106.112 2.688-13.184 4.181-24.96 6.571-49.963l0.811-8.448c1.877-19.456 1.877-37.973 0.725-82.944l-0.299-13.099c-1.365-58.795 0-92.203 7.936-124.416 14.165-57.771 38.912-109.995 83.029-151.979-4.352-0.128-9.088-0.213-14.123-0.213z" />
<glyph unicode="&#xe921;" d="M215.168 192h299.179v-85.333h-299.179c-97.451 0-153.515 31.573-120.192 96.853 5.717 11.093 13.739 20.565 24.192 30.293 5.163 4.864 20.011 17.28 16.427 14.165 34.261 29.653 54.272 70.272 65.621 116.523 5.504 22.443 6.699 50.773 5.504 102.101l-0.299 12.928c-1.28 48.725-1.237 69.12 1.109 93.312l0.768 8.32c2.688 27.989 4.437 41.984 7.936 59.093 11.307 54.784 36.779 100.864 87.083 149.973 57.472 56.064 128.597 84.437 211.029 84.437v-85.333c-60.373 0-110.080-19.84-151.424-60.16-38.229-37.333-55.296-68.181-63.104-106.112-2.688-13.184-4.181-24.96-6.571-49.963l-0.768-8.448c-1.877-19.456-1.92-37.973-0.768-82.944l0.299-13.099c1.408-58.795 0-92.203-7.893-124.416-14.165-57.771-38.955-109.995-83.072-151.979 4.395-0.128 9.088-0.213 14.123-0.213z" />
<glyph unicode="&#xe922;" d="M0 960h1024v-1024h-1024z" />
<glyph unicode="&#xe923;" d="M213.333 789.333h597.333c47.128 0 85.333-38.205 85.333-85.333v0-597.333c0-47.128-38.205-85.333-85.333-85.333v0h-597.333c-47.128 0-85.333 38.205-85.333 85.333v0 597.333c0 47.128 38.205 85.333 85.333 85.333v0zM213.333 704v-597.333h597.333v597.333h-597.333z" />
<glyph unicode="&#xe924;" d="M298.667 832v-85.333c0-23.564 19.103-42.667 42.667-42.667s42.667 19.103 42.667 42.667v0 85.333c0 23.564-19.103 42.667-42.667 42.667s-42.667-19.103-42.667-42.667v0z" />
<glyph unicode="&#xe925;" d="M409.6 322.304c-7.042 5.327-15.947 8.533-25.6 8.533-23.564 0-42.667-19.103-42.667-42.667 0-13.911 6.657-26.267 16.959-34.056l0.107-0.078 114.944-86.187 196.821 196.821c8.036 7.769 13.026 18.647 13.026 30.69 0 23.564-19.103 42.667-42.667 42.667-12.043 0-22.92-4.989-30.678-13.014l-144.524-144.481-55.723 41.813z" />
<glyph unicode="&#xe926;" d="M170.667 576h682.667v-85.333h-682.667z" />
<glyph unicode="&#xe927;" d="M640 832v-85.333c0-23.564 19.103-42.667 42.667-42.667s42.667 19.103 42.667 42.667v0 85.333c0 23.564-19.103 42.667-42.667 42.667s-42.667-19.103-42.667-42.667v0z" />
<glyph unicode="&#xe928;" d="M0 960h1024v-1024h-1024z" />
<glyph unicode="&#xe929;" d="M84.736 149.461c155.947-2.133 264.875 22.699 327.68 78.891 61.013 54.528 100.523 138.581 120.107 250.837 13.397 74.368 42.069 121.259 85.077 144.512 48.085 25.941 126.72 39.040 235.093 37.547 23.328 0.309 42.119 19.291 42.119 42.663 0 22.921-18.075 41.621-40.749 42.624l-0.090 0.003c-121.643 1.707-213.632-13.611-276.907-47.787-68.309-36.907-110.891-106.453-128.597-204.672-16.555-95.147-48.043-161.963-92.928-202.155-43.008-38.485-133.12-59.008-269.653-57.173-0.171 0.002-0.373 0.004-0.576 0.004-23.566 0-42.671-19.104-42.671-42.671 0-23.364 18.777-42.342 42.064-42.666h0.031z" />
<glyph unicode="&#xe92a;" d="M758.613 782.507l107.008-108.459c7.694-7.563 18.253-12.232 29.903-12.232 23.564 0 42.667 19.103 42.667 42.667 0 11.438-4.501 21.824-11.828 29.486l0.015-0.016-107.008 108.501c-7.742 7.844-18.493 12.703-30.379 12.703-23.569 0-42.676-19.107-42.676-42.676 0-11.684 4.695-22.271 12.302-29.978l-0.005 0.005z" />
<glyph unicode="&#xe92b;" d="M926.293 673.963l-107.093-107.861c-7.734-7.793-18.45-12.617-30.293-12.617-23.569 0-42.676 19.107-42.676 42.676 0 11.726 4.729 22.348 12.385 30.061l-0.003-0.003 107.093 107.819c7.811 8.368 18.906 13.584 31.219 13.584 23.564 0 42.667-19.103 42.667-42.667 0-12.197-5.118-23.198-13.323-30.974l-0.019-0.018z" />
<glyph unicode="&#xe92c;" d="M584.32 298.027c9.813-10.453 20.907-18.987 33.28-25.728 48.085-25.941 126.72-39.040 235.093-37.547 23.328-0.309 42.119-19.291 42.119-42.663 0-22.921-18.075-41.621-40.749-42.624l-0.090-0.003c-121.643-1.707-213.632 13.611-276.907 47.787-21.224 11.586-39.378 25.727-54.929 42.334l-0.111 0.12c-7.137 7.608-11.522 17.874-11.522 29.163 0 23.565 19.103 42.668 42.668 42.668 12.276 0 23.341-5.184 31.125-13.483l0.021-0.023zM84.736 746.539c155.947 2.133 264.875-22.699 327.68-78.891 7.723-6.869 15.104-14.251 22.144-22.101 6.759-7.519 10.892-17.517 10.892-28.48 0-23.571-19.108-42.679-42.679-42.679-12.608 0-23.939 5.467-31.752 14.16l-0.035 0.039c-4.924 5.502-9.966 10.557-15.266 15.33l-0.179 0.158c-43.008 38.485-133.12 59.008-269.653 57.173-0.171-0.002-0.373-0.004-0.576-0.004-23.566 0-42.671 19.104-42.671 42.671 0 23.364 18.777 42.342 42.064 42.666h0.031z" />
<glyph unicode="&#xe92d;" d="M758.869 115.755l107.051 106.496c7.761 7.98 18.602 12.932 30.599 12.932 23.564 0 42.667-19.103 42.667-42.667 0-12.082-5.022-22.991-13.092-30.753l-0.014-0.013-107.008-106.496c-7.761-7.98-18.602-12.932-30.599-12.932-23.564 0-42.667 19.103-42.667 42.667 0 12.082 5.022 22.991 13.092 30.753l0.014 0.013z" />
<glyph unicode="&#xe92e;" d="M926.208 222.123l-107.008 107.307c-7.726 7.742-18.408 12.531-30.208 12.531-23.569 0-42.675-19.106-42.675-42.675 0-11.769 4.764-22.424 12.468-30.145l107.007-107.263c7.773-8.061 18.667-13.067 30.73-13.067 23.564 0 42.667 19.103 42.667 42.667 0 12.021-4.971 22.88-12.97 30.635l-0.011 0.011z" />
<glyph unicode="&#xe92f;" d="M0 960h1024v-1024h-1024z" />
<glyph unicode="&#xe930;" d="M512-21.333c259.2 0 469.333 210.133 469.333 469.333s-210.133 469.333-469.333 469.333-469.333-210.133-469.333-469.333 210.133-469.333 469.333-469.333zM512 64c-212.077 0-384 171.923-384 384s171.923 384 384 384v0c212.077 0 384-171.923 384-384s-171.923-384-384-384v0z" />
<glyph unicode="&#xe931;" d="M451.115 404.779l-84.181 63.147c-7.042 5.327-15.947 8.533-25.6 8.533-23.564 0-42.667-19.103-42.667-42.667 0-13.911 6.657-26.267 16.959-34.056l0.107-0.078 143.36-107.52 253.739 253.696c7.41 7.665 11.977 18.12 11.977 29.641 0 23.564-19.103 42.667-42.667 42.667-11.521 0-21.976-4.567-29.653-11.989l-201.375-201.375z" />
<glyph unicode="&#xe932;" d="M0 960h1024v-1024h-1024z" />
<glyph unicode="&#xe933;" d="M203.179 560.939c-7.885 9.76-19.853 15.95-33.267 15.95-23.564 0-42.667-19.103-42.667-42.667 0-10.97 4.14-20.974 10.944-28.533l-0.034 0.039 287.531-338.603 459.307 508.288c7.226 7.627 11.67 17.955 11.67 29.32 0 23.564-19.103 42.667-42.667 42.667-12.894 0-24.452-5.719-32.275-14.759l-0.046-0.054-394.027-436.011-224.427 264.363z" />
<glyph unicode="&#xe934;" d="M0 960h1024v-1024h-1024z" />
<glyph unicode="&#xe935;" d="M180.907 668.757c-7.804 8.291-18.851 13.454-31.104 13.454-23.572 0-42.681-19.109-42.681-42.681 0-11.319 4.406-21.609 11.597-29.248l-0.020 0.022 372.437-396.501 372.437 396.544c7.086 7.597 11.436 17.826 11.436 29.071 0 23.564-19.103 42.667-42.667 42.667-12.189 0-23.185-5.111-30.96-13.308l-0.018-0.019-310.229-330.325-310.229 330.325z" />
<glyph unicode="&#xe936;" d="M0 960h1024v-1024h-1024z" />
<glyph unicode="&#xe937;" d="M512-21.333c259.2 0 469.333 210.133 469.333 469.333s-210.133 469.333-469.333 469.333-469.333-210.133-469.333-469.333 210.133-469.333 469.333-469.333zM512 64c-212.077 0-384 171.923-384 384s171.923 384 384 384v0c212.077 0 384-171.923 384-384s-171.923-384-384-384v0z" />
<glyph unicode="&#xe938;" d="M444.331 448l183.168-183.168c8.036-7.769 13.026-18.647 13.026-30.69 0-23.564-19.103-42.667-42.667-42.667-12.043 0-22.92 4.989-30.678 13.014l-243.511 243.511 243.499 243.499c7.665 7.41 18.12 11.977 29.641 11.977 23.564 0 42.667-19.103 42.667-42.667 0-11.521-4.567-21.976-11.989-29.653l-183.156-183.156z" />
<glyph unicode="&#xe939;" d="M0 960h1024v-1024h-1024z" />
<glyph unicode="&#xe93a;" d="M711.893 758.229c8.291 7.804 13.454 18.851 13.454 31.104 0 23.572-19.109 42.681-42.681 42.681-11.319 0-21.609-4.406-29.248-11.597l0.022 0.020-396.501-372.437 396.501-372.437c7.617-7.171 17.907-11.577 29.227-11.577 23.572 0 42.681 19.109 42.681 42.681 0 12.253-5.163 23.3-13.432 31.084l-0.022 0.020-330.325 310.229 330.325 310.229z" />
<glyph unicode="&#xe93b;" d="M0 960h1024v-1024h-1024z" />
<glyph unicode="&#xe93c;" d="M512-21.333c259.2 0 469.333 210.133 469.333 469.333s-210.133 469.333-469.333 469.333-469.333-210.133-469.333-469.333 210.133-469.333 469.333-469.333zM512 64c-212.077 0-384 171.923-384 384s171.923 384 384 384v0c212.077 0 384-171.923 384-384s-171.923-384-384-384v0z" />
<glyph unicode="&#xe93d;" d="M378.837 264.832c-8.036-7.769-13.026-18.647-13.026-30.69 0-23.564 19.103-42.667 42.667-42.667 12.043 0 22.92 4.989 30.678 13.014l243.511 243.511-243.499 243.499c-7.665 7.41-18.12 11.977-29.641 11.977-23.564 0-42.667-19.103-42.667-42.667 0-11.521 4.567-21.976 11.989-29.653l183.156-183.156-183.168-183.168z" />
<glyph unicode="&#xe93e;" d="M0 960h1024v-1024h-1024z" />
<glyph unicode="&#xe93f;" d="M270.379 137.771c-8.291-7.804-13.454-18.851-13.454-31.104 0-23.572 19.109-42.681 42.681-42.681 11.319 0 21.609 4.406 29.248 11.597l-0.022-0.020 396.501 372.437-396.544 372.437c-7.615 7.158-17.896 11.556-29.205 11.556-23.573 0-42.682-19.109-42.682-42.682 0-12.264 5.172-23.319 13.454-31.105l0.022-0.021 330.368-310.187-330.325-310.229z" />
<glyph unicode="&#xe940;" d="M0 960h1024v-1024h-1024z" />
<glyph unicode="&#xe941;" d="M801.365 227.243c7.804-8.291 18.851-13.454 31.104-13.454 23.572 0 42.681 19.109 42.681 42.681 0 11.319-4.406 21.609-11.597 29.248l0.020-0.022-372.48 396.501-372.395-396.544c-7.086-7.597-11.436-17.826-11.436-29.071 0-23.564 19.103-42.667 42.667-42.667 12.189 0 23.185 5.111 30.96 13.308l0.018 0.019 310.187 330.325 310.272-330.325z" />
<glyph unicode="&#xe942;" d="M0 960h1024v-1024h-1024z" />
<glyph unicode="&#xe943;" d="M547.157 452.949c19.309-19.304 31.252-45.975 31.252-75.435s-11.943-56.131-31.252-75.434l-134.4-134.4c-19.268-19.1-45.797-30.902-75.083-30.902-58.91 0-106.667 47.756-106.667 106.667 0 29.296 11.811 55.834 30.93 75.112l116.772 116.772c7.41 7.665 11.977 18.12 11.977 29.641 0 23.564-19.103 42.667-42.667 42.667-11.521 0-21.976-4.567-29.653-11.989l-116.767-116.767c-33.781-34.575-54.622-81.919-54.622-134.131 0-106.039 85.961-192 192-192 52.202 0 99.537 20.832 134.147 54.637l-0.038-0.037 134.4 134.4c34.746 34.745 56.236 82.746 56.236 135.765s-21.491 101.020-56.236 135.765v0c-7.769 8.036-18.647 13.026-30.69 13.026-23.564 0-42.667-19.103-42.667-42.667 0-12.043 4.989-22.92 13.014-30.678l0.012-0.012z" />
<glyph unicode="&#xe944;" d="M525.909 431.701c-19.296 19.302-31.231 45.964-31.231 75.413s11.935 56.112 31.231 75.414l134.4 134.4c19.334 19.494 46.129 31.562 75.744 31.562 58.91 0 106.667-47.756 106.667-106.667 0-29.625-12.077-56.429-31.576-75.757l-116.787-116.787c-8.036-7.769-13.026-18.647-13.026-30.69 0-23.564 19.103-42.667 42.667-42.667 12.043 0 22.92 4.989 30.678 13.014l116.791 116.791c33.781 34.575 54.622 81.919 54.622 134.131 0 106.039-85.961 192-192 192-52.202 0-99.537-20.832-134.147-54.637l0.038 0.037-134.4-134.4c-34.746-34.745-56.236-82.746-56.236-135.765s21.491-101.020 56.236-135.765v0c7.722-7.716 18.386-12.489 30.165-12.489 23.569 0 42.675 19.106 42.675 42.675 0 11.79-4.781 22.463-12.51 30.186v0z" />
<glyph unicode="&#xe945;" d="M0 960h1024v-1024h-1024z" />
<glyph unicode="&#xe946;" d="M213.333 789.333h597.333c47.128 0 85.333-38.205 85.333-85.333v0-597.333c0-47.128-38.205-85.333-85.333-85.333v0h-597.333c-47.128 0-85.333 38.205-85.333 85.333v0 597.333c0 47.128 38.205 85.333 85.333 85.333v0zM213.333 704v-597.333h597.333v597.333h-597.333z" />
<glyph unicode="&#xe947;" d="M298.667 832v-85.333c0-23.564 19.103-42.667 42.667-42.667s42.667 19.103 42.667 42.667v0 85.333c0 23.564-19.103 42.667-42.667 42.667s-42.667-19.103-42.667-42.667v0z" />
<glyph unicode="&#xe948;" d="M170.667 576h682.667v-85.333h-682.667z" />
<glyph unicode="&#xe949;" d="M384 405.333c23.564 0 42.667-19.103 42.667-42.667s-19.103-42.667-42.667-42.667c-23.564 0-42.667 19.103-42.667 42.667s19.103 42.667 42.667 42.667z" />
<glyph unicode="&#xe94a;" d="M384 277.333c23.564 0 42.667-19.103 42.667-42.667s-19.103-42.667-42.667-42.667c-23.564 0-42.667 19.103-42.667 42.667s19.103 42.667 42.667 42.667z" />
<glyph unicode="&#xe94b;" d="M512 405.333c23.564 0 42.667-19.103 42.667-42.667s-19.103-42.667-42.667-42.667c-23.564 0-42.667 19.103-42.667 42.667s19.103 42.667 42.667 42.667z" />
<glyph unicode="&#xe94c;" d="M512 277.333c23.564 0 42.667-19.103 42.667-42.667s-19.103-42.667-42.667-42.667c-23.564 0-42.667 19.103-42.667 42.667s19.103 42.667 42.667 42.667z" />
<glyph unicode="&#xe94d;" d="M640 405.333c23.564 0 42.667-19.103 42.667-42.667s-19.103-42.667-42.667-42.667c-23.564 0-42.667 19.103-42.667 42.667s19.103 42.667 42.667 42.667z" />
<glyph unicode="&#xe94e;" d="M640 277.333c23.564 0 42.667-19.103 42.667-42.667s-19.103-42.667-42.667-42.667c-23.564 0-42.667 19.103-42.667 42.667s19.103 42.667 42.667 42.667z" />
<glyph unicode="&#xe94f;" d="M640 832v-85.333c0-23.564 19.103-42.667 42.667-42.667s42.667 19.103 42.667 42.667v0 85.333c0 23.564-19.103 42.667-42.667 42.667s-42.667-19.103-42.667-42.667v0z" />
<glyph unicode="&#xe950;" d="M0 960h1024v-1024h-1024z" />
<glyph unicode="&#xe951;" d="M243.499 119.168l597.333 597.333c8.036 7.769 13.026 18.647 13.026 30.69 0 23.564-19.103 42.667-42.667 42.667-12.043 0-22.92-4.989-30.678-13.014l-597.345-597.345c-7.41-7.665-11.977-18.12-11.977-29.641 0-23.564 19.103-42.667 42.667-42.667 11.521 0 21.976 4.567 29.653 11.989l-0.012-0.012z" />
<glyph unicode="&#xe952;" d="M183.168 716.501l597.333-597.333c7.665-7.41 18.12-11.977 29.641-11.977 23.564 0 42.667 19.103 42.667 42.667 0 11.521-4.567 21.976-11.989 29.653l-597.321 597.321c-7.665 7.41-18.12 11.977-29.641 11.977-23.564 0-42.667-19.103-42.667-42.667 0-11.521 4.567-21.976 11.989-29.653l-0.012 0.012z" />
<glyph unicode="&#xe953;" d="M1019.453 923.587v-983.040h-983.040v983.040z" />
<glyph unicode="&#xe954;" d="M562.627 159.642v601.907c0 22.622-18.338 40.96-40.96 40.96s-40.96-18.338-40.96-40.96v0-601.907c0-22.622 18.338-40.96 40.96-40.96s40.96 18.338 40.96 40.96v0z" />
<glyph unicode="&#xe955;" d="M521.667 200.602l-261.407 278.364c-7.492 7.959-18.097 12.916-29.86 12.916-22.629 0-40.974-18.345-40.974-40.974 0-10.866 4.23-20.745 11.133-28.079l-0.020 0.021 321.126-341.893 321.126 341.934c6.948 7.325 11.222 17.247 11.222 28.166 0 22.622-18.338 40.96-40.96 40.96-11.826 0-22.482-5.012-29.959-13.028l-0.022-0.024-261.407-278.323z" />
<glyph unicode="&#xe956;" d="M0 960h1024v-1024h-1024z" />
<glyph unicode="&#xe957;" d="M512 266.965l-110.933-110.933c-38.357-38.315-103.509-36.651-145.493 5.333-42.027 42.027-43.691 107.179-5.333 145.536l110.933 110.933c7.716 7.722 12.489 18.386 12.489 30.165 0 23.569-19.106 42.675-42.675 42.675-11.79 0-22.463-4.781-30.186-12.51l-110.934-110.934c-72.363-72.363-69.291-191.573 5.333-266.197 74.667-74.667 193.835-77.696 266.24-5.291l110.933 110.933c7.138 7.608 11.523 17.874 11.523 29.164 0 23.564-19.103 42.667-42.667 42.667-11.322 0-21.613-4.41-29.251-11.605l0.021 0.020zM693.035 448l110.933 110.933c38.315 38.357 36.651 103.509-5.333 145.493-42.027 42.027-107.179 43.691-145.536 5.333l-110.933-110.933c-7.722-7.716-18.386-12.489-30.165-12.489-23.569 0-42.675 19.106-42.675 42.675 0 11.79 4.781 22.463 12.51 30.186l110.934 110.934c72.363 72.363 191.573 69.291 266.197-5.333 74.667-74.667 77.696-193.835 5.291-266.24l-110.933-110.933c-7.608-7.138-17.874-11.523-29.164-11.523-23.564 0-42.667 19.103-42.667 42.667 0 11.322 4.41 21.613 11.605 29.251l-0.020-0.021zM256.427 641.451l481.451-479.659c7.66-7.386 18.098-11.937 29.599-11.937 23.564 0 42.667 19.103 42.667 42.667 0 11.543-4.584 22.016-12.031 29.697l0.011-0.011-481.536 479.659c-7.566 6.952-17.7 11.213-28.829 11.213-23.564 0-42.667-19.103-42.667-42.667 0-11.193 4.31-21.38 11.361-28.99l-0.025 0.028z" />
<glyph unicode="&#xe958;" d="M0 960h1024v-1024h-1024z" />
<glyph unicode="&#xe959;" d="M512-21.333c259.2 0 469.333 210.133 469.333 469.333s-210.133 469.333-469.333 469.333-469.333-210.133-469.333-469.333 210.133-469.333 469.333-469.333zM512 64c-212.077 0-384 171.923-384 384s171.923 384 384 384v0c212.077 0 384-171.923 384-384s-171.923-384-384-384v0z" />
<glyph unicode="&#xe95a;" d="M458.667 216.235v-2.816c0-29.455 23.878-53.333 53.333-53.333s53.333 23.878 53.333 53.333v0 2.816c0 29.455-23.878 53.333-53.333 53.333s-53.333-23.878-53.333-53.333v0z" />
<glyph unicode="&#xe95b;" d="M469.547 320c0 33.28 4.139 59.733 12.373 79.488s24.576 41.429 48.939 65.067c24.363 23.637 39.808 40.448 46.293 50.432 10.027 15.275 15.019 31.744 15.019 49.493 0 23.509-5.803 41.472-17.451 53.845-11.605 12.373-28.672 18.56-51.2 18.56-21.461 0-38.827-6.059-51.925-18.219-13.099-12.117-19.669-28.544-19.669-49.28h-91.136c0.512 44.245 15.573 79.232 45.227 104.96 29.568 25.771 68.779 38.656 117.547 38.656 50.219 0 89.429-12.757 117.547-38.272 28.16-25.472 42.197-61.099 42.197-106.837 0-40.789-19.029-80.896-57.003-120.405l-46.123-45.355c-16.512-18.773-25.003-46.123-25.515-82.133h-85.12z" />
<glyph unicode="&#xe95c;" d="M0 960h1024v-1024h-1024z" />
<glyph unicode="&#xe95d;" d="M512 917.333c-259.2 0-469.333-210.133-469.333-469.333s210.133-469.333 469.333-469.333 469.333 210.133 469.333 469.333-210.133 469.333-469.333 469.333zM512 832c212.077 0 384-171.923 384-384s-171.923-384-384-384v0c-212.077 0-384 171.923-384 384s171.923 384 384 384v0z" />
<glyph unicode="&#xe95e;" d="M565.333 272.469v201.6c0 29.455-23.878 53.333-53.333 53.333s-53.333-23.878-53.333-53.333v0-201.6c0-29.455 23.878-53.333 53.333-53.333s53.333 23.878 53.333 53.333v0zM565.333 640.384v2.773c0 29.455-23.878 53.333-53.333 53.333s-53.333-23.878-53.333-53.333v0-2.773c0-29.455 23.878-53.333 53.333-53.333s53.333 23.878 53.333 53.333v0z" />
<glyph unicode="&#xe95f;" d="M0 960h1024v-1024h-1024z" />
<glyph unicode="&#xe960;" d="M341.333 192v-128c0.015-23.553 19.112-42.64 42.667-42.64 10.128 0 19.432 3.529 26.749 9.424l-0.082-0.064 201.6 161.28h241.067c23.564 0 42.667 19.103 42.667 42.667v0 512c0 23.564-19.103 42.667-42.667 42.667v0h-682.667c-23.564 0-42.667-19.103-42.667-42.667v0-512c0-23.564 19.103-42.667 42.667-42.667v0h170.667zM213.333 704h597.333v-426.667h-213.333c-10.131-0.008-19.434-3.546-26.748-9.45l0.081 0.064-144-115.2v81.92c0 23.564-19.103 42.667-42.667 42.667v0h-170.667v426.667z" />
<glyph unicode="&#xe961;" d="M0 960h1024v-1024h-1024z" />
<glyph unicode="&#xe962;" d="M512-21.333c259.2 0 469.333 210.133 469.333 469.333s-210.133 469.333-469.333 469.333-469.333-210.133-469.333-469.333 210.133-469.333 469.333-469.333zM512 64c-212.077 0-384 171.923-384 384s171.923 384 384 384v0c212.077 0 384-171.923 384-384s-171.923-384-384-384v0z" />
<glyph unicode="&#xe963;" d="M298.667 405.333h426.667c23.564 0 42.667 19.103 42.667 42.667s-19.103 42.667-42.667 42.667v0h-426.667c-23.564 0-42.667-19.103-42.667-42.667s19.103-42.667 42.667-42.667v0z" />
<glyph unicode="&#xe964;" d="M0 960h1024v-1024h-1024z" />
<glyph unicode="&#xe965;" d="M170.667 405.333h682.667c23.564 0 42.667 19.103 42.667 42.667s-19.103 42.667-42.667 42.667v0h-682.667c-23.564 0-42.667-19.103-42.667-42.667s19.103-42.667 42.667-42.667v0z" />
<glyph unicode="&#xe966;" d="M0 960h1024v-1024h-1024z" />
<glyph unicode="&#xe967;" d="M170.667 704h682.667c23.564 0 42.667 19.103 42.667 42.667s-19.103 42.667-42.667 42.667v0h-682.667c-23.564 0-42.667-19.103-42.667-42.667s19.103-42.667 42.667-42.667v0zM170.667 405.333h682.667c23.564 0 42.667 19.103 42.667 42.667s-19.103 42.667-42.667 42.667v0h-682.667c-23.564 0-42.667-19.103-42.667-42.667s19.103-42.667 42.667-42.667v0zM170.667 106.667h682.667c23.564 0 42.667 19.103 42.667 42.667s-19.103 42.667-42.667 42.667v0h-682.667c-23.564 0-42.667-19.103-42.667-42.667s19.103-42.667 42.667-42.667v0z" />
<glyph unicode="&#xe968;" d="M0 960h1024v-1024h-1024z" />
<glyph unicode="&#xe969;" d="M170.667 789.333h682.667c47.128 0 85.333-38.205 85.333-85.333v0-512c0-47.128-38.205-85.333-85.333-85.333v0h-682.667c-47.128 0-85.333 38.205-85.333 85.333v0 512c0 47.128 38.205 85.333 85.333 85.333v0zM170.667 704v-512h682.667v512h-682.667z" />
<glyph unicode="&#xe96a;" d="M128 448h768v170.667h-768z" />
<glyph unicode="&#xe96b;" d="M0 960h1024v-1024h-1024z" />
<glyph unicode="&#xe96c;" d="M512-21.333c259.2 0 469.333 210.133 469.333 469.333s-210.133 469.333-469.333 469.333-469.333-210.133-469.333-469.333 210.133-469.333 469.333-469.333zM512 64c-212.077 0-384 171.923-384 384s171.923 384 384 384v0c212.077 0 384-171.923 384-384s-171.923-384-384-384v0z" />
<glyph unicode="&#xe96d;" d="M706.347 483.499c11.52-7.761 18.996-20.757 18.996-35.499s-7.476-27.738-18.845-35.402l-0.152-0.096-256-170.667c-6.653-4.494-14.854-7.174-23.68-7.174-23.564 0-42.667 19.103-42.667 42.667 0 0.002 0 0.005 0 0.007v0 341.333c0 0.002 0 0.004 0 0.006 0 23.564 19.103 42.667 42.667 42.667 8.826 0 17.027-2.68 23.832-7.271l-0.152 0.096 256-170.667z" />
<glyph unicode="&#xe96e;" d="M0 960h1024v-1024h-1024z" />
<glyph unicode="&#xe96f;" d="M834.347 483.499c11.52-7.761 18.996-20.757 18.996-35.499s-7.476-27.738-18.845-35.402l-0.152-0.096-512-341.333c-6.653-4.494-14.854-7.174-23.68-7.174-23.564 0-42.667 19.103-42.667 42.667 0 0.002 0 0.005 0 0.007v0 682.667c0 0.002 0 0.004 0 0.006 0 23.564 19.103 42.667 42.667 42.667 8.826 0 17.027-2.68 23.832-7.271l-0.152 0.096 512-341.333zM341.333 709.632v-523.221l392.405 261.589-392.405 261.589z" />
<glyph unicode="&#xe970;" d="M0 960h1024v-1024h-1024z" />
<glyph unicode="&#xe971;" d="M213.333 832h597.333c47.128 0 85.333-38.205 85.333-85.333v0-597.333c0-47.128-38.205-85.333-85.333-85.333v0h-597.333c-47.128 0-85.333 38.205-85.333 85.333v0 597.333c0 47.128 38.205 85.333 85.333 85.333v0zM213.333 746.667v-597.333h597.333v597.333h-597.333z" />
<glyph unicode="&#xe972;" d="M448 576v0zM448 661.333c56.875 0 56.875-85.333 0-85.333h-106.667c-56.875 0-56.875 85.333 0 85.333h213.333c56.875 0 56.875-85.333 0-85.333h-106.667c-56.875 0-56.875 85.333 0 85.333zM512 405.333v0zM512 490.667c56.875 0 56.875-85.333 0-85.333h-170.667c-56.875 0-56.875 85.333 0 85.333h341.333c56.875 0 56.875-85.333 0-85.333h-170.667c-56.875 0-56.875 85.333 0 85.333zM405.333 234.667v0zM405.333 320c56.875 0 56.875-85.333 0-85.333h-64c-56.875 0-56.875 85.333 0 85.333h128c56.875 0 56.875-85.333 0-85.333h-64c-56.875 0-56.875 85.333 0 85.333z" />
<glyph unicode="&#xe973;" d="M0 960h1024v-1024h-1024z" />
<glyph unicode="&#xe974;" d="M862.293 425.301c0.528 6.793 0.828 14.711 0.828 22.699s-0.301 15.905-0.891 23.742l0.063-1.043 71.467 55.893c24.832 19.627 31.232 53.973 16.299 81.365l-85.845 148.523c-14.805 27.221-48.512 38.699-77.525 28.16l-85.845-34.475c-10.981 7.499-23.745 15.042-36.991 21.773l-2.007 0.925-12.928 89.941c-3.797 31.061-31.189 54.528-63.104 54.528h-170.667c-31.915 0-59.264-23.467-63.232-55.296l-12.8-89.259c-15.239-7.725-27.944-15.251-40.13-23.487l1.304 0.831-84.693 34.005c-6.976 2.864-15.073 4.526-23.559 4.526-23.942 0-44.793-13.235-55.635-32.788l-0.166-0.326-84.907-146.688c-5.475-9.198-8.711-20.281-8.711-32.12 0-20.239 9.457-38.268 24.193-49.911l0.134-0.102 71.68-56.021c-0.524-6.793-0.823-14.711-0.823-22.699s0.299-15.906 0.886-23.743l-0.063 1.045-71.552-55.893c-14.866-11.865-24.309-29.984-24.309-50.309 0-11.397 2.969-22.101 8.177-31.38l-0.167 0.323 85.888-148.523c14.805-27.221 48.469-38.699 77.525-28.16l85.845 34.475c12.587-8.448 25.6-16 38.997-22.699l12.885-89.941c3.925-31.061 31.275-54.528 63.232-54.528h170.667c31.957 0 59.307 23.467 63.275 55.296l12.8 89.259c15.239 7.725 27.944 15.251 40.13 23.487l-1.304-0.831 84.693-34.005c6.976-2.864 15.073-4.526 23.559-4.526 23.942 0 44.793 13.235 55.635 32.788l0.166 0.326 84.821 146.688c15.445 28.288 9.045 62.677-15.616 82.133l-71.68 56.021zM799.573 198.144l-110.933 44.544-19.2-14.421c-20.949-15.701-41.643-27.819-62.72-36.48l-22.613-9.259-16.939-118.528h-133.376l-13.525 94.379-3.456 24.149-22.613 9.259c-23.773 9.959-44.284 22.101-62.84 36.626l0.59-0.445-19.328 14.848-111.232-44.672-66.816 115.627 94.251 73.728-2.987 23.979c-1.58 10.837-2.567 23.485-2.729 36.332l-0.002 0.191c0 10.709 0.896 22.357 2.688 36.523l2.987 24.021-94.293 73.685 66.859 115.627 110.933-44.544 19.2 14.421c20.907 15.701 41.6 27.819 62.72 36.48l22.571 9.259 16.981 118.528h133.376l13.525-94.379 3.499-24.149 22.613-9.259c21.931-9.003 42.539-21.035 62.251-36.181l19.285-14.848 111.275 44.672 66.816-115.627-94.251-73.728 2.987-23.979c1.792-14.421 2.645-25.515 2.645-36.523s-0.853-22.101-2.645-36.523l-2.987-24.021 94.293-73.685-66.901-115.627z" />
<glyph unicode="&#xe975;" d="M500.48 256c-106 0.097-191.903 86.001-192 191.991v0.009c0 105.899 86.059 192 192 192 105.899 0 192-86.101 192-192s-86.101-192-192-192zM500.48 341.333c58.752 0 106.667 47.872 106.667 106.667s-47.915 106.667-106.667 106.667c-58.871-0.097-106.57-47.795-106.667-106.657v-0.009c0-58.795 47.872-106.667 106.667-106.667z" />
<glyph unicode="&#xe976;" d="M0 960h1024v-1024h-1024z" />
<glyph unicode="&#xe977;" d="M281.045 65.067c-5.745-3.072-12.566-4.877-19.809-4.877-23.564 0-42.667 19.103-42.667 42.667 0 2.537 0.221 5.022 0.646 7.437l-0.037-0.256 44.075 257.152-186.837 182.101c-7.957 7.758-12.892 18.583-12.892 30.56 0 21.414 15.775 39.143 36.339 42.201l0.233 0.029 258.176 37.547 115.456 233.941c7.121 14.217 21.576 23.807 38.272 23.807s31.151-9.589 38.16-23.561l0.112-0.246 115.456-233.984 258.176-37.547c20.779-3.103 36.534-20.823 36.534-42.224 0-11.959-4.92-22.768-12.846-30.515l-186.888-182.109 44.117-257.152c0.387-2.159 0.609-4.644 0.609-7.181 0-23.564-19.103-42.667-42.667-42.667-7.243 0-14.064 1.805-20.039 4.989l0.23-0.112-230.955 121.387-230.955-121.387z" />
<glyph unicode="&#xe978;" d="M0 960h1024v-1024h-1024z" />
<glyph unicode="&#xe979;" d="M281.045 65.067c-5.745-3.072-12.566-4.877-19.809-4.877-23.564 0-42.667 19.103-42.667 42.667 0 2.537 0.221 5.022 0.646 7.437l-0.037-0.256 44.075 257.152-186.837 182.101c-7.957 7.758-12.892 18.583-12.892 30.56 0 21.414 15.775 39.143 36.339 42.201l0.233 0.029 258.176 37.547 115.456 233.941c7.121 14.217 21.576 23.807 38.272 23.807s31.151-9.589 38.16-23.561l0.112-0.246 115.456-233.984 258.176-37.547c20.779-3.103 36.534-20.823 36.534-42.224 0-11.959-4.92-22.768-12.846-30.515l-186.888-182.109 44.117-257.152c0.387-2.159 0.609-4.644 0.609-7.181 0-23.564-19.103-42.667-42.667-42.667-7.243 0-14.064 1.805-20.039 4.989l0.23-0.112-230.955 121.387-230.955-121.387zM492.16 272.427c5.753 3.083 12.585 4.893 19.84 4.893s14.087-1.811 20.069-5.005l-0.229 0.112 174.293-91.605-33.28 194.048c-0.392 2.173-0.617 4.675-0.617 7.229 0 11.963 4.923 22.776 12.854 30.523l141.022 137.395-194.859 28.331c-14.183 2.123-25.922 10.97-32.016 23.135l-0.112 0.246-87.125 176.512-87.125-176.512c-6.206-12.411-17.945-21.258-31.893-23.352l-0.235-0.029-194.859-28.288 141.013-137.429c7.939-7.755 12.862-18.568 12.862-30.531 0-2.554-0.224-5.056-0.655-7.486l0.038 0.257-33.28-194.048 174.293 91.605z" />
<glyph unicode="&#xe97a;" d="M0 960h1024v-1024h-1024z" />
<glyph unicode="&#xe97b;" d="M512-21.333c259.2 0 469.333 210.133 469.333 469.333s-210.133 469.333-469.333 469.333-469.333-210.133-469.333-469.333 210.133-469.333 469.333-469.333zM512 64c-212.077 0-384 171.923-384 384s171.923 384 384 384v0c212.077 0 384-171.923 384-384s-171.923-384-384-384v0z" />
<glyph unicode="&#xe97c;" d="M554.667 470.827v190.507c0 23.564-19.103 42.667-42.667 42.667s-42.667-19.103-42.667-42.667v0-236.16l146.987-98.005c6.654-4.494 14.854-7.173 23.68-7.173 23.567 0 42.672 19.105 42.672 42.672 0 14.741-7.475 27.736-18.84 35.402l-0.152 0.096-109.013 72.661z" />
<glyph unicode="&#xe97d;" d="M0 960h1024v-1024h-1024z" />
<glyph unicode="&#xe97e;" d="M512-21.333c259.2 0 469.333 210.133 469.333 469.333s-210.133 469.333-469.333 469.333-469.333-210.133-469.333-469.333 210.133-469.333 469.333-469.333zM512 64c-212.077 0-384 171.923-384 384s171.923 384 384 384v0c212.077 0 384-171.923 384-384s-171.923-384-384-384v0z" />
<glyph unicode="&#xe97f;" d="M512 310.528c103.68 0 184.875 94.72 184.875 208.597 0 113.835-81.195 208.597-184.875 208.597s-184.875-94.72-184.875-208.64c0-113.835 81.195-208.555 184.875-208.555zM512 395.861c-53.419 0-99.541 53.845-99.541 123.264 0 69.376 46.123 123.264 99.541 123.264s99.541-53.888 99.541-123.307c0-69.376-46.123-123.221-99.541-123.221z" />
<glyph unicode="&#xe980;" d="M866.389 183.979c-69.083 127.074-201.574 211.883-353.874 211.883-0.046 0-0.093 0-0.139 0h0.007c-0.040 0-0.088 0-0.135 0-153.352 0-286.622-85.985-354.226-212.374l-1.052-2.154 75.52-39.808c54.068 101.238 159.027 168.96 279.802 168.96 0.032 0 0.064 0 0.096 0h-0.005c0.047 0 0.104 0 0.16 0 119.936 0 224.272-66.792 277.84-165.21l0.827-1.66 75.179 40.363z" />
<glyph unicode="&#xe981;" d="M0 960h1024v-1024h-1024z" />
<glyph unicode="&#xe982;" d="M872.491 713.813l-140.032-58.539v56.747c-0.265 42.756-34.987 77.313-77.78 77.313-0.166 0-0.331-0.001-0.496-0.002h-533.308c-0.14 0.001-0.305 0.001-0.47 0.001-42.799 0-77.52-34.587-77.738-77.335v-485.354c0-42.965 35.243-77.312 78.208-77.312h533.333c0.14-0.001 0.305-0.001 0.47-0.001 42.808 0 77.539 34.582 77.78 77.333v56.642l140.203-58.581c8.988-3.86 19.45-6.104 30.436-6.104 15.807 0 30.529 4.646 42.875 12.648l-0.308-0.187c21.518 13.894 35.583 37.722 35.669 64.84v346.765c0 26.197-13.44 50.517-35.499 64.768-12.073 7.901-26.861 12.601-42.746 12.601-11.065 0-21.597-2.28-31.152-6.397l0.512 0.196zM899.541 635.733v0zM896 631.211v-323.669l-248.875 104.021v-176.896h-519.125v469.333h519.125v-176.853l248.875 104.021z" />
<glyph unicode="&#xe983;" d="M0 960h1024v-1024h-1024z" />
<glyph unicode="&#xe984;" d="M512-21.333c259.2 0 469.333 210.133 469.333 469.333s-210.133 469.333-469.333 469.333-469.333-210.133-469.333-469.333 210.133-469.333 469.333-469.333zM512 64c-212.077 0-384 171.923-384 384s171.923 384 384 384v0c212.077 0 384-171.923 384-384s-171.923-384-384-384v0z" />
<glyph unicode="&#xe985;" d="M458.667 623.531v-201.6c0-29.455 23.878-53.333 53.333-53.333s53.333 23.878 53.333 53.333v0 201.6c0 29.455-23.878 53.333-53.333 53.333s-53.333-23.878-53.333-53.333v0zM458.667 255.616v-2.773c0-29.455 23.878-53.333 53.333-53.333s53.333 23.878 53.333 53.333v0 2.773c0 29.455-23.878 53.333-53.333 53.333s-53.333-23.878-53.333-53.333v0z" />
<glyph unicode="&#xe986;" d="M0 960h1024v-1024h-1024z" />
<glyph unicode="&#xe987;" d="M642.56 622.677l19.115 127.189c144.507-35.655 265.87-118.293 349.997-230.462l1.15-1.602-91.733-91.691c-65.909 95.151-162.443 165.043-275.131 195.766l-3.439 0.799zM382.976 620.629c-113.192-32.695-207.064-101.817-270.46-193.603l-1.071-1.64-91.307 92.288c83.842 111.922 202.539 193.695 339.805 229.49l4.301 0.953 18.731-127.488zM603.904 366.208l19.413 128.853c87.636-27.627 159.152-85.019 204.312-160.068l0.914-1.639-95.147-95.147c-24.703 58.487-70.648 103.947-127.927 127.432l-1.566 0.568zM420.779 362.667c-55.262-25.115-98.186-69.326-121.025-124.016l-0.575-1.552-95.104 95.616 0.683 1.152c44.686 74.074 113.049 129.996 194.436 157.832l2.556 0.76 19.029-129.792z" />
<glyph unicode="&#xe988;" d="M597.333 149.333c0-47.128-38.205-85.333-85.333-85.333s-85.333 38.205-85.333 85.333c0 47.128 38.205 85.333 85.333 85.333s85.333-38.205 85.333-85.333z" />
<glyph unicode="&#xe989;" d="M426.667 901.419h176.299l-55.68-527.36h-74.155z" />
<glyph unicode="&#xe98a;" d="M0 960h1024v-1024h-1024z" />
<glyph unicode="&#xe98b;" d="M1012.821 517.803l-91.733-91.691c-89.537 129.293-237.097 212.907-404.187 212.907-0.133 0-0.266 0-0.4 0h0.021c-164.309 0-314.496-81.323-405.077-213.632l-91.307 92.288c113.862 152.041 293.564 249.387 496.003 249.387 0.134 0 0.268 0 0.403 0h-0.022c198.656 0 381.013-94.464 496.299-249.259z" />
<glyph unicode="&#xe98c;" d="M828.587 333.355l-95.189-95.147c-36.246 85.759-119.664 144.844-216.881 144.844-97.639 0-181.359-59.599-216.763-144.402l-0.574-1.551-95.104 95.616 0.683 1.152c64.409 106.881 179.856 177.262 311.741 177.262 132.094 0 247.698-70.605 311.131-176.135l0.914-1.64z" />
<glyph unicode="&#xe98d;" d="M601.856 148.395c0-47.128-38.205-85.333-85.333-85.333s-85.333 38.205-85.333 85.333c0 47.128 38.205 85.333 85.333 85.333s85.333-38.205 85.333-85.333z" />
<glyph unicode="&#xe98e;" d="M0 960h1024v-1024h-1024z" />
<glyph unicode="&#xe98f;" d="M256 789.333h554.667c94.257 0 170.667-76.41 170.667-170.667v0-318.891c0-94.257-76.41-170.667-170.667-170.667v0h-554.667c-94.257 0-170.667 76.41-170.667 170.667v0 318.891c0 94.257 76.41 170.667 170.667 170.667v0zM256 704c-47.128 0-85.333-38.205-85.333-85.333v0-318.891c0-47.128 38.205-85.333 85.333-85.333v0h554.667c47.128 0 85.333 38.205 85.333 85.333v0 318.891c0 47.128-38.205 85.333-85.333 85.333v0h-554.667z" />
<glyph unicode="&#xe990;" d="M651.221 459.221l-188.587-141.483v283.008z" />
</font>
</defs>
</svg>
